<svg xmlns="http://www.w3.org/2000/svg" width="470.94" height="577.58" viewBox="205.98 0 258.97 370" xmlns:xlink="http://www.w3.org/1999/xlink"><defs><style>.cls-1,.cls-4,.cls-5,.cls-6,.cls-7,.cls-8{fill:none;}.cls-2{isolation:isolate;}.cls-3{fill:#23263d;}.cls-4,.cls-5{stroke:#75d5e7;}.cls-4,.cls-5,.cls-6,.cls-7,.cls-8{stroke-linecap:round;stroke-miterlimit:10;}.cls-4{stroke-width:2px;}.cls-5{stroke-width:5px;}.cls-6,.cls-7,.cls-8{stroke:#cde6eb;}.cls-6{stroke-width:0.9px;}.cls-7{stroke-width:0.7px;}.cls-8{stroke-width:0.5px;}.cls-9{fill:#f2e7da;}.cls-10{fill:#e25941;}.cls-11{fill:#ddd6ce;}.cls-12{fill:#cbdcf2;opacity:0.19;}.cls-13{fill:#bee8e5;}.cls-14{mask:url(#mask);}.cls-15{opacity:0.48;mix-blend-mode:multiply;}.cls-16{fill:#096c93;}.cls-17{mask:url(#mask-2);}.cls-18{mask:url(#mask-3);}.cls-19{mask:url(#mask-4);}.cls-20{mask:url(#mask-5);}.cls-21{mask:url(#mask-6);}.cls-22{mask:url(#mask-7);}.cls-23{mask:url(#mask-8);}.cls-24{mask:url(#mask-9);}.cls-25{mask:url(#mask-10);}.cls-26{mask:url(#mask-11);}.cls-27{mask:url(#mask-12);}.cls-28{mask:url(#mask-13);}.cls-29{mask:url(#mask-14);}.cls-30{mask:url(#mask-15);}.cls-31{mask:url(#mask-16);}.cls-32{mask:url(#mask-17);}.cls-33{mask:url(#mask-18);}.cls-34{mask:url(#mask-19);}.cls-35{mask:url(#mask-20);}.cls-36{mask:url(#mask-21);}.cls-37{mask:url(#mask-22);}.cls-38{mask:url(#mask-23);}.cls-39{mask:url(#mask-24);}.cls-40{mask:url(#mask-25);}.cls-41{mask:url(#mask-26);}.cls-42{mask:url(#mask-27);}.cls-43{mask:url(#mask-28);}.cls-44{mask:url(#mask-29);}.cls-45{mask:url(#mask-30);}.cls-46{mask:url(#mask-31);}.cls-47{mask:url(#mask-32);}.cls-48{fill:#f2ac2e;}.cls-49{fill:#f6ca50;}.cls-50{fill:#f4d37f;}.cls-51{fill:#f7b941;}.cls-52{fill:#1d1d1b;}.cls-53{fill:#434341;}.cls-54{fill:#686867;}.cls-55{fill:#8e8e8d;}.cls-56{fill:#b4b4b3;}.cls-57{fill:#d9d9d9;}.cls-58{fill:#fff;}.cls-59{fill:#3f4953;}.cls-60{clip-path:url(#clip-path);}.cls-61{filter:url(#luminosity-invert);}</style><filter id="luminosity-invert" filterUnits="userSpaceOnUse" color-interpolation-filters="sRGB"><feColorMatrix values="-1 0 0 0 1 0 -1 0 0 1 0 0 -1 0 1 0 0 0 1 0"/></filter><mask id="mask" width="8" height="8" x="282.06" y="119.68" maskUnits="userSpaceOnUse"><use transform="translate(282.06 119.68)" xlink:href="#image" class="cls-61"/></mask><mask id="mask-2" width="8" height="8" x="286.06" y="119.68" maskUnits="userSpaceOnUse"><use transform="translate(286.06 119.68)" xlink:href="#image" class="cls-61"/></mask><mask id="mask-3" width="8" height="8" x="282.06" y="123.68" maskUnits="userSpaceOnUse"><use transform="translate(282.06 123.68)" xlink:href="#image" class="cls-61"/></mask><mask id="mask-4" width="8" height="8" x="286.06" y="123.68" maskUnits="userSpaceOnUse"><use transform="translate(286.06 123.68)" xlink:href="#image" class="cls-61"/></mask><mask id="mask-5" width="9" height="8" x="302.06" y="119.68" maskUnits="userSpaceOnUse"><use transform="translate(302.06 119.68)" xlink:href="#image-2" class="cls-61"/></mask><mask id="mask-6" width="8" height="8" x="306.06" y="119.68" maskUnits="userSpaceOnUse"><use transform="translate(306.06 119.68)" xlink:href="#image" class="cls-61"/></mask><mask id="mask-7" width="9" height="8" x="302.06" y="123.68" maskUnits="userSpaceOnUse"><use transform="translate(302.06 123.68)" xlink:href="#image-2" class="cls-61"/></mask><mask id="mask-8" width="8" height="8" x="306.06" y="123.68" maskUnits="userSpaceOnUse"><use transform="translate(306.06 123.68)" xlink:href="#image" class="cls-61"/></mask><mask id="mask-9" width="8" height="8" x="289.06" y="112.68" maskUnits="userSpaceOnUse"><use transform="translate(289.06 112.68)" xlink:href="#image" class="cls-61"/></mask><mask id="mask-10" width="8" height="8" x="292.06" y="112.68" maskUnits="userSpaceOnUse"><use transform="translate(292.06 112.68)" xlink:href="#image" class="cls-61"/></mask><mask id="mask-11" width="8" height="8" x="289.06" y="116.68" maskUnits="userSpaceOnUse"><use transform="translate(289.06 116.68)" xlink:href="#image" class="cls-61"/></mask><mask id="mask-12" width="8" height="8" x="292.06" y="116.68" maskUnits="userSpaceOnUse"><use transform="translate(292.06 116.68)" xlink:href="#image" class="cls-61"/></mask><mask id="mask-13" width="8" height="8" x="296.06" y="112.68" maskUnits="userSpaceOnUse"><use transform="translate(296.06 112.68)" xlink:href="#image" class="cls-61"/></mask><mask id="mask-14" width="8" height="8" x="299.06" y="112.68" maskUnits="userSpaceOnUse"><use transform="translate(299.06 112.68)" xlink:href="#image" class="cls-61"/></mask><mask id="mask-15" width="8" height="8" x="296.06" y="116.68" maskUnits="userSpaceOnUse"><use transform="translate(296.06 116.68)" xlink:href="#image" class="cls-61"/></mask><mask id="mask-16" width="8" height="8" x="299.06" y="116.68" maskUnits="userSpaceOnUse"><use transform="translate(299.06 116.68)" xlink:href="#image" class="cls-61"/></mask><mask id="mask-17" width="8" height="8" x="352.06" y="119.68" maskUnits="userSpaceOnUse"><use transform="translate(352.06 119.68)" xlink:href="#image" class="cls-61"/></mask><mask id="mask-18" width="8" height="8" x="355.06" y="119.68" maskUnits="userSpaceOnUse"><use transform="translate(355.06 119.68)" xlink:href="#image" class="cls-61"/></mask><mask id="mask-19" width="8" height="8" x="352.06" y="123.68" maskUnits="userSpaceOnUse"><use transform="translate(352.06 123.68)" xlink:href="#image" class="cls-61"/></mask><mask id="mask-20" width="8" height="8" x="355.06" y="123.68" maskUnits="userSpaceOnUse"><use transform="translate(355.06 123.68)" xlink:href="#image" class="cls-61"/></mask><mask id="mask-21" width="8" height="8" x="372.06" y="119.68" maskUnits="userSpaceOnUse"><use transform="translate(372.06 119.68)" xlink:href="#image" class="cls-61"/></mask><mask id="mask-22" width="9" height="8" x="375.06" y="119.68" maskUnits="userSpaceOnUse"><use transform="translate(375.06 119.68)" xlink:href="#image-2" class="cls-61"/></mask><mask id="mask-23" width="8" height="8" x="372.06" y="123.68" maskUnits="userSpaceOnUse"><use transform="translate(372.06 123.68)" xlink:href="#image" class="cls-61"/></mask><mask id="mask-24" width="9" height="8" x="375.06" y="123.68" maskUnits="userSpaceOnUse"><use transform="translate(375.06 123.68)" xlink:href="#image-2" class="cls-61"/></mask><mask id="mask-25" width="9" height="8" x="358.06" y="112.68" maskUnits="userSpaceOnUse"><use transform="translate(358.06 112.68)" xlink:href="#image-2" class="cls-61"/></mask><mask id="mask-26" width="8" height="8" x="362.06" y="112.68" maskUnits="userSpaceOnUse"><use transform="translate(362.06 112.68)" xlink:href="#image" class="cls-61"/></mask><mask id="mask-27" width="9" height="8" x="358.06" y="116.68" maskUnits="userSpaceOnUse"><use transform="translate(358.06 116.68)" xlink:href="#image-2" class="cls-61"/></mask><mask id="mask-28" width="8" height="8" x="362.06" y="116.68" maskUnits="userSpaceOnUse"><use transform="translate(362.06 116.68)" xlink:href="#image" class="cls-61"/></mask><mask id="mask-29" width="9" height="8" x="365.06" y="112.68" maskUnits="userSpaceOnUse"><use transform="translate(365.06 112.68)" xlink:href="#image-2" class="cls-61"/></mask><mask id="mask-30" width="8" height="8" x="369.06" y="112.68" maskUnits="userSpaceOnUse"><use transform="translate(369.06 112.68)" xlink:href="#image" class="cls-61"/></mask><mask id="mask-32" width="8" height="8" x="369.06" y="116.68" maskUnits="userSpaceOnUse"><use transform="translate(369.06 116.68)" xlink:href="#image" class="cls-61"/></mask><clipPath id="clip-path" transform="translate(-347.94 -96.32)"><path id="SVGID" d="M687.55 318.62a15.59 15.59 0 0 1-10.41 0c-8.66-3.1-25.1-9.39-25.1-12.56v-36.57a4 4 0 0 1 4.21-3.7h52.2a4 4 0 0 1 4.21 3.7v36.57c0 3.17-16.44 9.47-25.11 12.56z" class="cls-1"/></clipPath></defs><g class="cls-2"><g id="Ebene_1" data-name="Ebene 1"><path d="M292.06 315.68c5.11-2 19.49-3.22 42.31-3.22s37.73 1.3 42.31 3.22" class="cls-4"/><path d="M388.44 322.16c0 3.77-24.19 6.83-54 6.83s-54-3.06-54-6.83" class="cls-5"/><path d="M303.37 338.05c3.75-1.47 14.3-2.37 31-2.37s27.69 1 31 2.37" class="cls-4"/><path d="M374.06 342.81c0 2.77-17.75 5-39.65 5s-39.65-2.24-39.65-5" class="cls-5"/><path d="M316.19 359.1c2.2-.87 8.39-1.39 18.22-1.39s16.25.56 18.22 1.39" class="cls-4"/><path d="M357.67 361.89c0 1.63-10.42 2.94-23.27 2.94s-23.27-1.32-23.27-2.94" class="cls-5"/><ellipse cx="334.4" cy="320.49" class="cls-6" rx="23.34" ry="1.67"/><ellipse cx="334.4" cy="341.69" class="cls-7" rx="16.91" ry="1.21"/><ellipse cx="334.4" cy="361.1" class="cls-8" rx="8.46" ry=".6"/><path d="M247.63 171.16h165.88v12.62H247.63z" class="cls-9"/><path d="M356.12 295.15c0 5.82-14.72 10.54-20.54 10.54h-2.35c-5.82 0-20.54-4.72-20.54-10.54v-3.12a10.54 10.54 0 0 1 10.54-10.54h22.35a10.54 10.54 0 0 1 10.54 10.54z" class="cls-10"/><path d="M409.83 234.07c0 41.66-33.77 64.43-75.43 64.43-41.66 0-75.43-22.77-75.43-64.43V86.47a75.43 75.43 0 0 1 75.43-75.43 75.43 75.43 0 0 1 75.43 75.43z" class="cls-9"/><path d="M410.21 140.47c0 12.45-34 17.07-76.59 17.07s-77.81-4.61-77.81-17.07 34.56-22.55 77.21-22.55 77.19 10.09 77.19 22.55z" class="cls-11"/><path d="M256.95 83.07l1.11 58.38s27.27 10 77 10 74-10 74-10l-.12-58.54z" class="cls-3"/><path d="M409.06 141.49s-40.41-7.64-76.12-22-76-36.54-76-36.54l152-.56z" class="cls-12"/><rect width="3.14" height="3.14" x="284.82" y="122.24" class="cls-13" rx=".28" ry=".28"/><rect width="3.14" height="3.14" x="284.82" y="122.24" class="cls-14 cls-15 cls-16" rx=".28" ry=".28"/><rect width="3.14" height="3.14" x="288.27" y="122.24" class="cls-13" rx=".28" ry=".28"/><rect width="3.14" height="3.14" x="288.27" y="122.24" class="cls-17 cls-15 cls-16" rx=".28" ry=".28"/><rect width="3.14" height="3.14" x="284.82" y="125.83" class="cls-13" rx=".28" ry=".28"/><rect width="3.14" height="3.14" x="284.82" y="125.83" class="cls-18 cls-15 cls-16" rx=".28" ry=".28"/><rect width="3.14" height="3.14" x="288.27" y="125.83" class="cls-13" rx=".28" ry=".28"/><rect width="3.14" height="3.14" x="288.27" y="125.83" class="cls-19 cls-15 cls-16" rx=".28" ry=".28"/><rect width="3.14" height="3.14" x="305.04" y="122.24" class="cls-13" rx=".28" ry=".28"/><rect width="3.14" height="3.14" x="305.04" y="122.24" class="cls-20 cls-15 cls-16" rx=".28" ry=".28"/><rect width="3.14" height="3.14" x="308.49" y="122.24" class="cls-13" rx=".28" ry=".28"/><rect width="3.14" height="3.14" x="308.49" y="122.24" class="cls-21 cls-15 cls-16" rx=".28" ry=".28"/><rect width="3.14" height="3.14" x="305.04" y="125.83" class="cls-13" rx=".28" ry=".28"/><rect width="3.14" height="3.14" x="305.04" y="125.83" class="cls-22 cls-15 cls-16" rx=".28" ry=".28"/><rect width="3.14" height="3.14" x="308.49" y="125.83" class="cls-13" rx=".28" ry=".28"/><rect width="3.14" height="3.14" x="308.49" y="125.83" class="cls-23 cls-15 cls-16" rx=".28" ry=".28"/><rect width="3.14" height="3.14" x="291.44" y="115.18" class="cls-13" rx=".28" ry=".28"/><rect width="3.14" height="3.14" x="291.44" y="115.18" class="cls-24 cls-15 cls-16" rx=".28" ry=".28"/><rect width="3.14" height="3.14" x="294.89" y="115.18" class="cls-13" rx=".28" ry=".28"/><rect width="3.14" height="3.14" x="294.89" y="115.18" class="cls-25 cls-15 cls-16" rx=".28" ry=".28"/><rect width="3.14" height="3.14" x="291.44" y="118.78" class="cls-13" rx=".28" ry=".28"/><rect width="3.14" height="3.14" x="291.44" y="118.78" class="cls-26 cls-15 cls-16" rx=".28" ry=".28"/><rect width="3.14" height="3.14" x="294.89" y="118.78" class="cls-13" rx=".28" ry=".28"/><rect width="3.14" height="3.14" x="294.89" y="118.78" class="cls-27 cls-15 cls-16" rx=".28" ry=".28"/><rect width="3.14" height="3.14" x="298.38" y="115.18" class="cls-13" rx=".28" ry=".28"/><rect width="3.14" height="3.14" x="298.38" y="115.18" class="cls-28 cls-15 cls-16" rx=".28" ry=".28"/><rect width="3.14" height="3.14" x="301.83" y="115.18" class="cls-13" rx=".28" ry=".28"/><rect width="3.14" height="3.14" x="301.83" y="115.18" class="cls-29 cls-15 cls-16" rx=".28" ry=".28"/><rect width="3.14" height="3.14" x="298.38" y="118.78" class="cls-13" rx=".28" ry=".28"/><rect width="3.14" height="3.14" x="298.38" y="118.78" class="cls-30 cls-15 cls-16" rx=".28" ry=".28"/><rect width="3.14" height="3.14" x="301.83" y="118.78" class="cls-13" rx=".28" ry=".28"/><rect width="3.14" height="3.14" x="301.83" y="118.78" class="cls-31 cls-15 cls-16" rx=".28" ry=".28"/><rect width="3.14" height="3.14" x="354.38" y="122.24" class="cls-13" rx=".28" ry=".28"/><rect width="3.14" height="3.14" x="354.38" y="122.24" class="cls-32 cls-15 cls-16" rx=".28" ry=".28"/><rect width="3.14" height="3.14" x="357.83" y="122.24" class="cls-13" rx=".28" ry=".28"/><rect width="3.14" height="3.14" x="357.83" y="122.24" class="cls-33 cls-15 cls-16" rx=".28" ry=".28"/><rect width="3.14" height="3.14" x="354.38" y="125.83" class="cls-13" rx=".28" ry=".28"/><rect width="3.14" height="3.14" x="354.38" y="125.83" class="cls-34 cls-15 cls-16" rx=".28" ry=".28"/><rect width="3.14" height="3.14" x="357.83" y="125.83" class="cls-13" rx=".28" ry=".28"/><rect width="3.14" height="3.14" x="357.83" y="125.83" class="cls-35 cls-15 cls-16" rx=".28" ry=".28"/><rect width="3.14" height="3.14" x="374.59" y="122.24" class="cls-13" rx=".28" ry=".28"/><rect width="3.14" height="3.14" x="374.59" y="122.24" class="cls-36 cls-15 cls-16" rx=".28" ry=".28"/><rect width="3.14" height="3.14" x="378.04" y="122.24" class="cls-13" rx=".28" ry=".28"/><rect width="3.14" height="3.14" x="378.04" y="122.24" class="cls-37 cls-15 cls-16" rx=".28" ry=".28"/><rect width="3.14" height="3.14" x="374.59" y="125.83" class="cls-13" rx=".28" ry=".28"/><rect width="3.14" height="3.14" x="374.59" y="125.83" class="cls-38 cls-15 cls-16" rx=".28" ry=".28"/><rect width="3.14" height="3.14" x="378.04" y="125.83" class="cls-13" rx=".28" ry=".28"/><rect width="3.14" height="3.14" x="378.04" y="125.83" class="cls-39 cls-15 cls-16" rx=".28" ry=".28"/><rect width="3.14" height="3.14" x="361" y="115.18" class="cls-13" rx=".28" ry=".28"/><rect width="3.14" height="3.14" x="361" y="115.18" class="cls-40 cls-15 cls-16" rx=".28" ry=".28"/><rect width="3.14" height="3.14" x="364.45" y="115.18" class="cls-13" rx=".28" ry=".28"/><rect width="3.14" height="3.14" x="364.45" y="115.18" class="cls-41 cls-15 cls-16" rx=".28" ry=".28"/><rect width="3.14" height="3.14" x="361" y="118.78" class="cls-13" rx=".28" ry=".28"/><rect width="3.14" height="3.14" x="361" y="118.78" class="cls-42 cls-15 cls-16" rx=".28" ry=".28"/><rect width="3.14" height="3.14" x="364.45" y="118.78" class="cls-13" rx=".28" ry=".28"/><rect width="3.14" height="3.14" x="364.45" y="118.78" class="cls-43 cls-15 cls-16" rx=".28" ry=".28"/><rect width="3.14" height="3.14" x="367.93" y="115.18" class="cls-13" rx=".28" ry=".28"/><rect width="3.14" height="3.14" x="367.93" y="115.18" class="cls-44 cls-15 cls-16" rx=".28" ry=".28"/><rect width="3.14" height="3.14" x="371.38" y="115.18" class="cls-13" rx=".28" ry=".28"/><rect width="3.14" height="3.14" x="371.38" y="115.18" class="cls-45 cls-15 cls-16" rx=".28" ry=".28"/><rect width="3.14" height="3.14" x="367.93" y="118.78" class="cls-13" rx=".28" ry=".28"/><rect width="3.14" height="3.14" x="367.93" y="118.78" class="cls-46 cls-15 cls-16" rx=".28" ry=".28"/><rect width="3.14" height="3.14" x="371.38" y="118.78" class="cls-13" rx=".28" ry=".28"/><rect width="3.14" height="3.14" x="371.38" y="118.78" class="cls-47 cls-15 cls-16" rx=".28" ry=".28"/><path d="M409.87 77.74c0 14.1-52.75 24-76.71 23.37-26.94-.66-78.09-8.27-78.09-22.37s29.13-22.53 77.4-22.53 77.4 7.47 77.4 21.53z" class="cls-48"/><path d="M408.34 78.12a75.18 75.18 0 1 0-150.36 0s31.23 14.65 75.18 14.65a208.3 208.3 0 0 0 75.18-14.65z" class="cls-49"/><ellipse cx="721.02" cy="135.53" class="cls-50" rx="11.57" ry="26.19" transform="rotate(-38.63 409.69 583.74)"/><path d="M318.72 94.68l-3.5-91.27s2.5-3.38 15.5-3.38 15 1.93 15 1.93v92.72s-11.5 3.35-27 0z" class="cls-51"/><path d="M334.75 35.78l-1.4 5.37 4.67.54-5.68 7.47 1.48-5.68-5.83-.31 2.1-7.39h4.66z" class="cls-10"/><path d="M328.63 67.5h7.36v-7.36h-7.36zm0 14.68h7.36v-7.36h-7.36zm11-11a3.65 3.65 0 0 1 3.63 3.68v11a3.65 3.65 0 0 1-3.63 3.68h-18.31V52.83h18.36a3.57 3.57 0 0 1 3.63 3.63v11a3.57 3.57 0 0 1-3.63 3.63z" class="cls-52"/><path d="M328.86 67.41h7.36v-7.36h-7.36zm0 14.68h7.36v-7.41h-7.36zm11-11a3.65 3.65 0 0 1 3.63 3.68v11a3.65 3.65 0 0 1-3.63 3.68h-18.31V52.74h18.36a3.57 3.57 0 0 1 3.63 3.63v11a3.57 3.57 0 0 1-3.63 3.63z" class="cls-53"/><path d="M329.06 67.32h7.36v-7.36h-7.36zm0 14.68h7.36v-7.32h-7.36zm11-11a3.65 3.65 0 0 1 3.63 3.68v11a3.65 3.65 0 0 1-3.63 3.68h-18.28V52.68h18.36a3.57 3.57 0 0 1 3.63 3.63v11a3.57 3.57 0 0 1-3.63 3.63z" class="cls-54"/><path d="M329.33 67.23h7.36v-7.36h-7.36zm0 14.68h7.36v-7.36h-7.36zm11-11a3.65 3.65 0 0 1 3.63 3.68v11a3.65 3.65 0 0 1-3.63 3.68h-18.27V52.55h18.36a3.57 3.57 0 0 1 3.63 3.63v11a3.57 3.57 0 0 1-3.63 3.63z" class="cls-55"/><path d="M329.56 67.13h7.36v-7.36h-7.36zm0 14.68h7.36v-7.36h-7.36zm11-11a3.65 3.65 0 0 1 3.63 3.68v11a3.65 3.65 0 0 1-3.63 3.68h-18.31V52.46h18.36a3.57 3.57 0 0 1 3.63 3.63v11a3.57 3.57 0 0 1-3.63 3.63z" class="cls-56"/><path d="M329.79 67.04h7.36v-7.36h-7.36zm0 14.68h7.36v-7.36h-7.36zm11-11a3.65 3.65 0 0 1 3.63 3.68v11a3.65 3.65 0 0 1-3.63 3.68h-18.31V52.37h18.36a3.57 3.57 0 0 1 3.63 3.63v11a3.57 3.57 0 0 1-3.63 3.63z" class="cls-57"/><path d="M330.06 66.95h7.36v-7.36h-7.36zm0 14.68h7.36v-7.36h-7.36zm11-11a3.65 3.65 0 0 1 3.63 3.68v11a3.65 3.65 0 0 1-3.63 3.68h-18.35V52.27h18.35a3.57 3.57 0 0 1 3.63 3.63v11a3.57 3.57 0 0 1-3.63 3.68z" class="cls-58"/><circle cx="334.4" cy="259.04" r="5.24" class="cls-59"/><path d="M347.37 264.29c-2.64 3.73-8.2 7.59-12.94 7.59a14.51 14.51 0 0 1-12.52-7.2l-8.25 4.78a24.07 24.07 0 0 0 20.77 12c8.6 0 16.77-6 20.73-11.62z" class="cls-49"/><path d="M339.61 222.3a15.59 15.59 0 0 1-10.41 0c-8.66-3.1-25.1-9.39-25.1-12.56v-36.57a4 4 0 0 1 4.21-3.7h52.2a4 4 0 0 1 4.21 3.7v36.57c0 3.17-16.44 9.47-25.11 12.56z" class="cls-11"/><path d="M442.95 245.61h7.76v36.07h-7.76z" class="cls-49"/><path d="M435.85 256.19h22c0-42.4-8.93-70.44-26.54-83.33a36.4 36.4 0 0 0-31.36-6.18l6.65 21-.23.07c.63-.17 6.34-1.5 12.32 3.11 6.37 4.97 17.16 20.02 17.16 65.33z" class="cls-9"/><path d="M406.37 187.79a11.38 11.38 0 0 1 2.39-.28l-.52-22a31 31 0 0 0-8.28 1.23l6.65 21zm28.21 43.89l21.88-2.49c.39 3.44.71 7.07.93 10.79l-22 1.34c-.18-3.38-.46-6.64-.81-9.64zm-3.43-18.45l21.22-5.87c.95 3.43 1.78 7.11 2.49 10.95l-21.66 4c-.58-3.28-1.27-6.32-2.04-9.12zm-6.64-15.74l18.49-12a68.1 68.1 0 0 1 5.63 10.84l-20.33 8.45a46.2 46.2 0 0 0-3.79-7.33zm-10-8.92l8-20.52a39.4 39.4 0 0 1 12 7.44l-14.68 16.41a17.52 17.52 0 0 0-5.29-3.37z" class="cls-11"/><path d="M435.85 256.19h22q0-2.81-.05-5.49l-22 .41q.05 2.49.05 5.08z" class="cls-49"/><path d="M431.13 253.76h31.4v14.8h-31.4z" class="cls-3"/><path d="M431.45 285.03c-4.38 8.65-4.65 14.47-2.17 16.09s6.75-1.55 11.13-10.2c3.49-6.89 4.33-12.49 4-16.17-.1-.94-1.8-2.08-2.52-1.72-3.05 1.47-6.91 5.03-10.44 12z" class="cls-11"/><path d="M433.17 292.42c0 12.58 6 19.12 13.51 19.12s13.51-6.53 13.51-19.12c0-10-4.5-16.74-9.57-20.49-1.3-1-6.44-1-7.68-.07-5.12 3.77-9.77 10.42-9.77 20.56z" class="cls-9"/><path d="M215.38 244.66h7.76v36.07h-7.76z" class="cls-49"/><path d="M230.26 255.25h-22c0-42.4 8.93-70.44 26.54-83.33a36.4 36.4 0 0 1 31.38-6.14l-6.65 21 .23.07c-.63-.17-6.34-1.5-12.32 3.11-6.43 4.92-17.18 19.97-17.18 65.29z" class="cls-9"/><path d="M259.74 186.84a11.38 11.38 0 0 0-2.39-.28l.52-22a31 31 0 0 1 8.28 1.23l-6.65 21zm-28.22 43.84l-21.88-2.49c-.39 3.44-.71 7.07-.93 10.79l22 1.34c.18-3.33.47-6.57.81-9.64zm3.43-18.45l-21.22-5.87c-.95 3.43-1.78 7.11-2.49 10.95l21.66 4c.58-3.23 1.27-6.27 2.05-9.07zm6.64-15.74l-18.49-12a68.1 68.1 0 0 0-5.63 10.84l20.33 8.45a46.2 46.2 0 0 1 3.79-7.27zm10-8.92l-8-20.52a39.4 39.4 0 0 0-12 7.44l14.68 16.41a17.52 17.52 0 0 1 5.3-3.32z" class="cls-11"/><path d="M230.26 255.25h-22q0-2.81.05-5.49l22 .41q-.05 2.51-.05 5.08z" class="cls-49"/><path d="M203.56 252.82h31.4v14.8h-31.4z" class="cls-3"/><path d="M234.65 284.08c4.38 8.65 4.65 14.47 2.17 16.09s-6.75-1.55-11.13-10.2c-3.49-6.89-4.33-12.49-4-16.17.1-.94 1.8-2.08 2.52-1.72 3.06 1.47 6.91 5.03 10.44 12z" class="cls-11"/><path d="M232.94 291.47c0 12.58-6 19.12-13.51 19.12s-13.51-6.53-13.51-19.12c0-10 4.5-16.74 9.57-20.49 1.3-1 6.44-1 7.68-.07 5.12 3.77 9.77 10.43 9.77 20.56z" class="cls-9"/><ellipse cx="334.4" cy="224.86" class="cls-60 cls-10" rx="24.11" ry="10.38"/><path d="M306.09 172.59h4.86v27.17h-4.86zm6.47 0h4.86v27.17h-4.86zm6.47 0h4.86v27.17h-4.86zm6.47 0h4.86v27.17h-4.86zm6.47 0h4.86v27.17h-4.86zm6.47 0h4.86v27.17h-4.86zm6.47 0h4.86v27.17h-4.86zm6.47 0h4.86v27.17h-4.86zm6.47 0h4.86v27.17h-4.86z" class="cls-58"/></g></g></svg>